<svg width="37" height="34" viewBox="0 0 37 34" fill="none" xmlns="http://www.w3.org/2000/svg">
<g id="30*30 icon 2">
<rect id="Rectangle" x="5.34326" y="9.15723" width="8" height="18" rx="4" transform="rotate(-45 5.34326 9.15723)" fill="#FFCF24"/>
<path id="Subtract" d="M1.17139 6.32812C2.73342 4.76618 5.26653 4.76626 6.82861 6.32812L6.85693 6.35645C5.53916 8.30163 5.7415 10.9693 7.46436 12.6924L13.8628 19.0908C12.298 20.6175 9.7929 20.6068 8.24268 19.0566L1.17139 11.9854C-0.390503 10.4232 -0.390641 7.89015 1.17139 6.32812Z" fill="#FFCF24"/>
<path id="Subtract_2" d="M18.3428 0C27.1793 0 34.3428 6.93959 34.3428 15.5C34.3428 24.0604 27.1793 31 18.3428 31C9.50636 30.9998 2.34277 24.0603 2.34277 15.5C2.34277 15.15 2.76109 14.9886 3.00856 15.2361L7.53613 19.7637C9.24093 21.4681 11.8694 21.6839 13.8086 20.4119C14.2642 20.113 14.8784 20.113 15.334 20.4118C17.2732 21.6838 19.9017 21.4682 21.6064 19.7637C23.559 17.8111 23.5588 14.645 21.6064 12.6924L14.5361 5.62109C12.7094 3.79441 9.82023 3.67673 7.85652 5.26792C7.64976 5.43546 7.34439 5.43215 7.13721 5.26513C6.89559 5.07035 6.85377 4.70865 7.07758 4.49365C9.96906 1.716 13.949 7.94496e-05 18.3428 0Z" fill="white"/>
<path id="Union" d="M35.3433 13.5C35.8955 13.5 36.3462 13.9482 36.3155 14.4996C36.0704 18.9091 34.2101 23.0883 31.0708 26.2275C29.3243 27.974 27.256 29.3243 25.0051 30.221C24.6114 30.3778 24.3433 30.753 24.3433 31.1768V32.5C24.3433 33.0523 23.8955 33.5 23.3433 33.5H13.3433C12.791 33.5 12.3433 33.0523 12.3433 32.5V31.1768C12.3433 30.753 12.0751 30.3778 11.6814 30.221C9.43057 29.3242 7.36219 27.974 5.61572 26.2275C2.47646 23.0883 0.616152 18.9091 0.371019 14.4996C0.340364 13.9482 0.790977 13.5 1.34326 13.5H35.3433Z" fill="url(#paint0_linear_1635_8152)"/>
</g>
<defs>
<linearGradient id="paint0_linear_1635_8152" x1="0.369629" y1="13.5" x2="17.3639" y2="44.045" gradientUnits="userSpaceOnUse">
<stop stop-color="#B1EDB3"/>
<stop offset="1" stop-color="#6CBD65"/>
</linearGradient>
</defs>
</svg>
