<svg width="37" height="37" viewBox="0 0 37 37" fill="none" xmlns="http://www.w3.org/2000/svg">
<g id="30*30 icon 2">
<g id="sport">
<path id="Subtract" d="M24.836 16.3326C25.183 15.9856 25.729 15.9442 26.1397 16.2128C29.1096 18.1546 32.514 19.1569 35.9325 19.2206C36.5157 19.2315 36.997 19.7081 36.9404 20.2886C36.5378 24.4161 34.7568 28.4342 31.5955 31.5956C28.4341 34.757 24.4156 36.5385 20.2879 36.9411C19.7074 36.9977 19.2308 36.5164 19.2199 35.9333C19.1562 32.5147 18.1539 29.1103 16.2121 26.1404C15.9435 25.7297 15.9849 25.1837 16.3318 24.8368L24.836 16.3326ZM5.35595 5.35597C8.51722 2.19484 12.5355 0.413809 16.6629 0.0111451C17.2433 -0.0454861 17.72 0.43588 17.7309 1.01901C17.7947 4.43739 18.7976 7.84133 20.7394 10.8111C21.008 11.2218 20.9666 11.7678 20.6197 12.1148L12.1141 20.6204C11.7671 20.9673 11.2211 21.0087 10.8104 20.7401C7.84063 18.7983 4.43669 17.7954 1.01829 17.7316C0.43516 17.7207 -0.0462059 17.2441 0.0104256 16.6636C0.413115 12.536 2.19458 8.51734 5.35595 5.35597Z" fill="url(#paint0_linear_1635_8137)"/>
<path id="Subtract_2" d="M32.7038 8.46411C33.1394 8.02856 33.8632 8.08593 34.1911 8.6073C35.7619 11.1041 36.6803 13.8935 36.9466 16.7329C37.0008 17.3109 36.5219 17.7898 35.9439 17.7356C33.1046 17.4693 30.3151 16.5509 27.8183 14.9802C27.2969 14.6522 27.2395 13.9284 27.6751 13.4928L32.7038 8.46411ZM19.2152 1.00691C19.161 0.428899 19.6399 -0.0499701 20.2179 0.00422885C23.0572 0.270466 25.8467 1.18896 28.3435 2.75969C28.8649 3.08768 28.9223 3.81147 28.4867 4.24702L23.458 9.27574C23.0224 9.71129 22.2987 9.65391 21.9707 9.13254C20.3999 6.6357 19.4815 3.84622 19.2152 1.00691Z" fill="url(#paint1_linear_1635_8137)"/>
<path id="Subtract_3" d="M13.4927 27.6758C13.9282 27.2402 14.652 27.2976 14.98 27.819C16.5506 30.3157 17.4692 33.1052 17.7354 35.9445C17.7897 36.5226 17.3108 37.0014 16.7327 36.9472C13.8935 36.6809 11.1039 35.7624 8.60718 34.1918C8.08579 33.8638 8.02841 33.14 8.46396 32.7044L13.4927 27.6758ZM0.00409441 20.2186C-0.0501189 19.6405 0.428755 19.1617 1.00678 19.2159C3.84616 19.4821 6.63557 20.4005 9.13241 21.9713C9.65377 22.2993 9.71114 23.0231 9.27559 23.4586L4.24685 28.4874C3.8113 28.9229 3.08751 28.8656 2.75952 28.3442C1.1888 25.8474 0.270392 23.0579 0.00409441 20.2186Z" fill="url(#paint2_linear_1635_8137)"/>
<rect id="Rectangle" opacity="0.5" x="2.66748" y="31.7354" width="41.1071" height="3.60589" rx="1.80295" transform="rotate(-45 2.66748 31.7354)" fill="#8EC5FF"/>
</g>
</g>
<defs>
<linearGradient id="paint0_linear_1635_8137" x1="40.163" y1="23.0281" x2="0.446925" y2="31.3633" gradientUnits="userSpaceOnUse">
<stop stop-color="#8EC5FF"/>
<stop offset="1" stop-color="#C9DEFF"/>
</linearGradient>
<linearGradient id="paint1_linear_1635_8137" x1="39.8852" y1="14.268" x2="24.4423" y2="21.3299" gradientUnits="userSpaceOnUse">
<stop stop-color="#8EC5FF"/>
<stop offset="1" stop-color="#C9DEFF"/>
</linearGradient>
<linearGradient id="paint2_linear_1635_8137" x1="20.6741" y1="33.4797" x2="5.23289" y2="40.5414" gradientUnits="userSpaceOnUse">
<stop stop-color="#8EC5FF"/>
<stop offset="1" stop-color="#C9DEFF"/>
</linearGradient>
</defs>
</svg>
