<svg width="36" height="34" viewBox="0 0 36 34" fill="none" xmlns="http://www.w3.org/2000/svg">
<g id="30*30 icon">
<path id="Subtract" d="M8.37622 2.24512C12.0138 0.145003 16.1114 -0.434408 19.9344 0.308141C20.5267 0.423193 20.5804 1.24225 20.0579 1.54395C14.551 4.72335 12.6636 11.7656 15.843 17.2725C19.0225 22.7792 26.0647 24.6657 31.5715 21.4863C32.094 21.1847 32.7763 21.6405 32.5798 22.2109C31.3113 25.893 28.7608 29.1518 25.1233 31.252C17.1133 35.8765 6.87093 33.1321 2.24634 25.1221C-2.37817 17.1121 0.36623 6.86969 8.37622 2.24512Z" fill="url(#paint0_linear_1635_8124)"/>
<path id="Union" opacity="0.5" d="M27.9128 2.35693C27.9128 3.22392 28.6157 3.92676 29.4827 3.92676H30.0066C30.5848 3.92676 31.0535 4.39546 31.0535 4.97363C31.0535 5.55181 30.5848 6.02051 30.0066 6.02051H29.4827C28.6157 6.02051 27.9128 6.72334 27.9128 7.59033V8.11377C27.9128 8.69167 27.4444 9.16016 26.8665 9.16016C26.2886 9.16016 25.8201 8.69167 25.8201 8.11377V7.59033C25.8201 6.72334 25.1172 6.02051 24.2502 6.02051H23.7263C23.1481 6.02051 22.6794 5.55181 22.6794 4.97363C22.6794 4.39546 23.1481 3.92676 23.7263 3.92676H24.2502C25.1172 3.92676 25.8201 3.22392 25.8201 2.35693V1.8335C25.8201 1.25559 26.2886 0.787109 26.8665 0.787109C27.4444 0.787109 27.9128 1.25559 27.9128 1.8335V2.35693Z" fill="#A27EFF"/>
<path id="Union_2" opacity="0.5" d="M33.2771 11.1885C33.2771 11.7305 33.7165 12.1699 34.2585 12.1699H34.5857C34.9471 12.1699 35.24 12.4629 35.24 12.8242C35.24 13.1856 34.9471 13.4785 34.5857 13.4785H34.2581C33.7163 13.4785 33.2771 13.9177 33.2771 14.4595V14.7866C33.2771 15.1477 32.9844 15.4404 32.6233 15.4404C32.2622 15.4404 31.9695 15.1477 31.9695 14.7866V14.4595C31.9695 13.9177 31.5303 13.4785 30.9885 13.4785H30.6609C30.2995 13.4785 30.0066 13.1856 30.0066 12.8242C30.0066 12.4629 30.2995 12.1699 30.6609 12.1699H30.988C31.5301 12.1699 31.9695 11.7305 31.9695 11.1885V10.8608C31.9695 10.4998 32.2622 10.207 32.6233 10.207C32.9844 10.207 33.2771 10.4998 33.2771 10.8608V11.1885Z" fill="#A27EFF"/>
</g>
<defs>
<linearGradient id="paint0_linear_1635_8124" x1="0.000244141" y1="-0.000976563" x2="33.4877" y2="32.6016" gradientUnits="userSpaceOnUse">
<stop stop-color="#DAB2FF"/>
<stop offset="1" stop-color="#AD46FF"/>
</linearGradient>
</defs>
</svg>
