<svg width="36" height="36" viewBox="0 0 36 36" fill="none" xmlns="http://www.w3.org/2000/svg">
<g id="30*30 icon">
<g id="trend">
<rect id="trend2" opacity="0.5" width="5" height="36" rx="2.5" fill="white"/>
<path id="trend1" d="M33 0C34.6569 1.28851e-07 36 1.34315 36 3V33C36 34.6569 34.6569 36 33 36H11C9.34315 36 8 34.6569 8 33V3C8 1.34315 9.34315 1.61064e-08 11 0H33ZM32.2793 11.916C32.4785 11.1725 31.7982 10.4913 31.0547 10.6904L24.3623 12.4844C23.6191 12.6839 23.37 13.613 23.9141 14.1572L25.5674 15.8105L22.5 18.8789L20.5605 16.9395C20.0115 16.3905 19.1428 16.3559 18.5537 16.8359L18.4395 16.9395L12.9395 22.4395C12.3537 23.0252 12.3538 23.9748 12.9395 24.5605C13.5252 25.1462 14.4748 25.1463 15.0605 24.5605L19.5 20.1211L21.4395 22.0605C22.0252 22.6462 22.9748 22.6463 23.5605 22.0605L27.6885 17.9316L28.8135 19.0557C29.3578 19.6 30.2871 19.351 30.4863 18.6074L32.2793 11.916Z" fill="url(#paint0_linear_1636_1788)"/>
</g>
</g>
<defs>
<linearGradient id="paint0_linear_1636_1788" x1="22" y1="0" x2="22" y2="36" gradientUnits="userSpaceOnUse">
<stop stop-color="white"/>
<stop offset="1" stop-color="#F5F5F5"/>
</linearGradient>
</defs>
</svg>
